<?xml version="1.0" standalone="no"?>
<!DOCTYPE svg PUBLIC "-//W3C//DTD SVG 20010904//EN"
 "http://www.w3.org/TR/2001/REC-SVG-20010904/DTD/svg10.dtd">
<svg version="1.0" xmlns="http://www.w3.org/2000/svg"
 width="50px" height="50px" viewBox="0 0 225.000000 225.000000"
 preserveAspectRatio="xMidYMid meet">

<g transform="translate(0.000000,225.000000) scale(0.100000,-0.100000)"
fill="#000000" stroke="none">
<path d="M77 1848 c-23 -14 -45 -38 -57 -64 -20 -40 -20 -57 -18 -562 3 -508
3 -521 24 -548 50 -68 53 -69 300 -72 l224 -3 0 -60 0 -59 -100 0 c-95 0 -100
-1 -116 -25 -15 -23 -15 -27 0 -50 l16 -25 450 0 450 0 16 25 c15 23 15 27 0
50 -16 24 -21 25 -116 25 l-100 0 0 59 0 60 224 3 c247 3 250 4 300 72 21 27
21 40 24 548 2 514 2 521 -19 565 -14 30 -33 50 -60 63 -37 19 -62 20 -721 20
l-683 0 -38 -22z m1405 -95 c17 -15 18 -41 18 -405 l0 -388 -700 0 -700 0 0
387 c0 346 2 388 17 405 15 17 50 18 681 18 605 0 667 -1 684 -17z m16 -955
c2 -47 -1 -61 -18 -78 -20 -20 -28 -20 -680 -20 -647 0 -660 0 -680 20 -15 15
-20 33 -20 73 0 30 3 57 7 60 3 4 317 6 697 5 l691 -3 3 -57z m-548 -258 l0
-60 -150 0 -150 0 0 60 0 60 150 0 150 0 0 -60z"/>
<path d="M1763 1685 c-17 -7 -40 -26 -50 -41 -17 -26 -18 -65 -21 -569 -2
-297 0 -559 3 -583 4 -27 17 -55 35 -75 l28 -32 199 -3 c171 -3 202 -1 230 14
64 34 63 23 63 646 0 541 -1 564 -20 595 -34 57 -59 63 -257 63 -129 -1 -187
-5 -210 -15z m385 -332 l2 -243 -177 0 -178 0 2 235 c1 130 5 240 8 246 4 6
71 8 173 7 l167 -3 3 -242z m2 -388 l0 -45 -177 0 -178 0 2 42 c1 24 2 44 2
46 1 1 80 2 176 2 l175 0 0 -45z m-2 -312 l-3 -168 -172 -3 -173 -2 0 170 0
170 175 0 175 0 -2 -167z"/>
<path d="M1928 1479 c-21 -12 -24 -59 -6 -77 17 -17 84 -15 102 4 49 48 -33
110 -96 73z"/>
</g>
</svg>
