<?xml version="1.0" standalone="no"?>
<!DOCTYPE svg PUBLIC "-//W3C//DTD SVG 20010904//EN"
 "http://www.w3.org/TR/2001/REC-SVG-20010904/DTD/svg10.dtd">
<svg version="1.0" xmlns="http://www.w3.org/2000/svg"
 width="845.000000pt" height="559.000000pt" viewBox="0 0 845.000000 559.000000"
 preserveAspectRatio="xMidYMid meet">

<g transform="translate(0.000000,559.000000) scale(0.100000,-0.100000)"
fill="#000000" stroke="none">
<path d="M5866 5545 c-15 -8 -39 -15 -51 -15 -13 0 -25 -7 -29 -15 -3 -8 -17
-15 -31 -15 -14 0 -25 -4 -25 -9 0 -5 -13 -14 -30 -21 -16 -7 -30 -16 -30 -21
0 -5 -13 -9 -30 -9 -17 0 -39 -9 -50 -20 -11 -11 -31 -20 -45 -20 -14 0 -25
-4 -25 -10 0 -5 -11 -10 -23 -10 -13 0 -34 -9 -47 -20 -13 -11 -34 -20 -47
-20 -12 0 -23 -4 -23 -10 0 -5 -10 -10 -23 -10 -12 0 -30 -9 -40 -20 -9 -11
-28 -20 -42 -20 -14 0 -25 -4 -25 -9 0 -5 -16 -12 -36 -16 -43 -8 -104 -35
-104 -47 0 -4 -9 -8 -19 -8 -11 0 -26 -7 -35 -15 -8 -8 -19 -15 -24 -15 -5 0
-23 -7 -38 -15 -16 -8 -46 -15 -66 -15 -21 0 -38 -4 -38 -8 0 -5 -18 -15 -40
-22 -22 -7 -40 -17 -40 -22 0 -4 -8 -8 -17 -8 -24 0 -83 -23 -83 -32 0 -4 -9
-8 -20 -8 -36 0 -120 -22 -133 -34 -7 -7 -36 -19 -65 -26 -29 -8 -52 -17 -52
-22 0 -4 -9 -8 -21 -8 -11 0 -53 -11 -92 -24 -40 -13 -94 -26 -121 -30 -28 -3
-53 -11 -57 -17 -7 -12 -99 -33 -191 -44 -32 -3 -58 -10 -58 -14 0 -18 -212
-41 -374 -41 -165 0 -166 0 -166 23 0 46 -45 147 -65 147 -5 0 -19 17 -30 37
-13 24 -31 41 -50 48 -16 5 -32 13 -35 17 -16 21 -78 28 -256 28 -128 0 -193
3 -189 10 8 13 -1977 14 -1990 1 -6 -6 -119 -11 -258 -13 -223 -3 -250 -5
-261 -20 -7 -10 -27 -21 -44 -24 -37 -8 -102 -87 -122 -149 -6 -22 -20 -46
-29 -53 -14 -12 -16 -91 -16 -883 0 -622 3 -872 11 -877 14 -9 39 -59 47 -93
8 -32 87 -115 119 -125 13 -3 32 -13 43 -20 11 -8 27 -14 36 -14 10 0 19 -6
22 -12 6 -19 2804 -19 2816 0 4 7 30 20 57 30 47 16 114 66 114 84 0 5 11 19
26 31 49 43 63 151 63 520 1 270 1 277 21 277 11 0 20 -6 20 -13 0 -12 23 -28
113 -77 9 -6 25 -15 35 -20 9 -6 29 -15 45 -21 15 -6 27 -15 27 -20 0 -13 83
-48 235 -97 28 -9 53 -20 56 -24 3 -5 50 -18 105 -30 54 -11 101 -24 104 -27
3 -4 34 -12 70 -18 132 -24 190 -38 190 -45 0 -5 18 -8 39 -8 22 0 84 -9 138
-19 54 -10 119 -22 146 -26 26 -3 47 -10 47 -16 0 -5 42 -9 94 -9 56 0 96 -4
98 -10 2 -6 49 -13 105 -17 56 -3 100 -9 98 -13 -10 -16 466 -57 536 -46 l44
6 0 207 c0 156 3 207 13 211 6 2 12 10 12 19 0 28 31 123 45 137 8 7 28 44 46
82 18 38 42 79 53 90 88 90 116 124 131 157 9 20 23 37 30 37 23 0 48 117 41
190 -7 66 -33 150 -46 150 -7 0 -31 33 -66 93 -15 25 -81 87 -93 87 -5 0 -14
14 -20 30 -5 17 -14 30 -19 30 -6 0 -13 12 -17 27 -3 15 -17 36 -29 47 -31 28
-56 106 -56 173 0 59 37 255 50 263 4 3 15 30 23 60 32 116 45 166 52 203 3
20 10 37 14 37 5 0 11 7 15 15 7 19 -11 19 -48 0z m-32 -79 c-3 -14 -11 -26
-18 -26 -6 0 -22 -35 -36 -78 -14 -42 -29 -80 -34 -84 -6 -3 -13 -35 -18 -70
-4 -35 -12 -85 -17 -113 -14 -74 -13 -188 3 -237 8 -24 17 -55 20 -70 3 -15
20 -42 36 -60 17 -18 30 -38 30 -45 0 -7 4 -13 8 -13 11 0 37 -26 91 -89 24
-28 49 -51 56 -51 17 0 60 -86 75 -152 21 -90 -8 -206 -64 -259 -14 -13 -26
-30 -26 -37 0 -8 -12 -26 -28 -40 -15 -15 -38 -48 -51 -74 -13 -26 -33 -57
-44 -69 -35 -37 -87 -109 -87 -119 0 -6 -4 -18 -9 -28 -26 -47 -51 -157 -57
-249 -6 -92 -1 -139 23 -225 4 -16 -3 -18 -56 -18 -34 0 -61 4 -61 10 0 6 -56
10 -149 10 -82 0 -151 4 -153 8 -3 9 -176 36 -358 56 -58 7 -112 15 -120 19
-22 9 -214 39 -292 44 -38 3 -68 9 -68 13 0 4 -48 13 -107 19 -142 17 -213 30
-213 42 0 5 -6 9 -12 9 -21 0 -239 61 -298 83 -30 11 -58 26 -62 32 -4 6 -26
19 -50 29 -82 33 -170 81 -179 97 -5 9 -20 20 -35 23 -14 4 -44 21 -65 38
l-39 31 0 449 0 448 140 0 c77 0 140 4 140 9 0 4 50 11 111 13 63 3 114 10
118 17 4 5 45 15 91 20 119 14 193 29 201 42 3 6 26 13 50 15 57 7 169 37 169
46 0 4 21 10 48 14 26 4 77 17 113 30 37 13 76 24 88 24 11 0 21 4 21 8 0 4
20 14 45 21 25 7 45 17 45 21 0 10 51 27 107 36 23 3 44 12 47 19 3 8 25 17
50 20 25 4 46 11 46 15 0 5 16 14 35 20 19 6 35 16 35 21 0 5 10 9 22 9 28 0
109 30 126 47 7 7 22 13 33 13 10 0 19 4 19 8 0 10 94 52 115 52 8 0 15 5 15
10 0 6 8 10 18 10 11 0 29 9 42 20 13 11 34 20 47 20 12 0 23 5 23 10 0 6 7
10 15 10 8 0 23 9 32 20 10 11 23 20 30 20 7 0 13 5 13 10 0 6 11 10 25 10 14
0 34 9 45 20 11 11 31 20 44 20 13 0 26 4 28 8 3 9 71 50 76 47 2 -2 0 -14 -4
-29z m-2824 -1516 l0 -800 -1315 0 -1315 0 0 800 0 800 1315 0 1315 0 0 -800z"/>
<path d="M5075 4599 c-229 -9 -335 -18 -335 -29 0 -4 -33 -11 -72 -16 -63 -8
-46 -9 127 -12 200 -3 451 13 461 29 3 5 17 9 32 9 37 0 72 11 72 21 0 10 0
10 -285 -2z"/>
<path d="M4945 4484 c-22 -2 -101 -9 -175 -15 -74 -6 -140 -15 -146 -20 -6 -5
-103 -10 -215 -10 -112 -1 -196 -4 -186 -6 9 -3 17 -9 17 -14 0 -5 43 -9 95
-9 57 0 95 -4 95 -10 0 -5 24 -10 54 -10 30 0 58 5 61 10 4 6 70 10 166 10 99
0 159 4 159 10 0 6 102 10 285 10 183 0 285 -4 285 -10 0 -6 50 -10 130 -10
72 0 130 4 130 9 0 9 -80 21 -141 21 -20 0 -39 3 -43 8 -23 23 -434 49 -571
36z"/>
<path d="M5800 4400 c0 -5 6 -10 14 -10 8 0 18 5 21 10 3 6 -3 10 -14 10 -12
0 -21 -4 -21 -10z"/>
<path d="M4675 3844 c-16 -2 -55 -7 -85 -11 l-55 -7 65 -7 c36 -4 108 -7 160
-8 92 -1 260 -19 391 -41 61 -10 90 -14 207 -26 28 -3 52 -9 52 -13 0 -8 122
-32 129 -25 9 8 -37 40 -73 50 -23 6 -68 19 -101 28 -114 32 -316 57 -490 61
-93 2 -183 1 -200 -1z"/>
<path d="M1450 2556 l0 -113 -61 -7 c-34 -3 -97 -6 -140 -6 -44 0 -79 -4 -79
-9 0 -4 -43 -11 -96 -13 -57 -3 -99 -10 -103 -17 -4 -6 -31 -14 -59 -18 -29
-3 -52 -10 -52 -14 0 -5 -11 -9 -23 -9 -13 0 -33 -8 -45 -17 -12 -10 -31 -26
-44 -35 -12 -10 -17 -18 -10 -18 7 0 12 -7 12 -15 0 -8 9 -15 19 -15 10 0 21
-6 24 -14 3 -8 19 -17 36 -21 17 -4 31 -10 31 -15 0 -4 23 -10 50 -14 28 -4
50 -11 50 -15 0 -11 46 -15 368 -32 133 -7 242 -17 242 -21 0 -4 63 -8 140 -8
77 0 140 4 140 8 0 4 102 14 228 21 286 16 342 21 342 31 0 5 27 12 60 16 33
4 60 10 60 13 0 4 16 13 35 20 19 7 35 17 35 22 0 5 9 9 19 9 40 0 36 54 -5
64 -13 4 -24 11 -24 16 0 5 -16 12 -35 16 -19 3 -35 10 -35 14 0 4 -23 10 -52
13 -28 4 -55 11 -58 18 -4 6 -44 13 -89 16 -45 3 -84 10 -87 14 -3 5 -40 9
-82 9 -42 0 -107 3 -144 7 l-68 6 0 113 0 114 -250 0 -250 0 0 -114z"/>
</g>
</svg>
