<?xml version="1.0" standalone="no"?>
<!DOCTYPE svg PUBLIC "-//W3C//DTD SVG 20010904//EN"
 "http://www.w3.org/TR/2001/REC-SVG-20010904/DTD/svg10.dtd">
<svg version="1.0" xmlns="http://www.w3.org/2000/svg"
 width="225.000000pt" height="225.000000pt" viewBox="0 0 225.000000 225.000000"
 preserveAspectRatio="xMidYMid meet">

<g transform="translate(0.000000,225.000000) scale(0.100000,-0.100000)"
fill="#000000" stroke="none">
<path d="M1529 2212 c-202 -156 -492 -297 -593 -290 -36 3 -41 6 -46 33 -10
46 -29 75 -56 85 -14 6 -180 10 -381 10 -420 0 -411 2 -437 -89 -13 -47 -16
-112 -16 -368 0 -204 4 -329 12 -363 13 -58 45 -95 89 -104 60 -12 682 -6 719
7 61 21 74 60 78 228 l4 145 36 -33 c79 -73 187 -115 425 -168 38 -8 90 -15
116 -15 l48 0 5 108 c4 102 7 112 48 197 59 122 59 162 0 271 -39 71 -43 86
-43 144 1 36 8 94 17 130 24 98 21 107 -25 72z m17 -29 c-14 -46 -26 -132 -26
-191 0 -59 4 -73 42 -136 57 -95 56 -137 -2 -261 -39 -82 -43 -98 -48 -186
l-4 -97 -42 5 c-39 4 -144 26 -286 59 -89 21 -176 63 -232 114 l-48 42 0 184
0 184 33 0 c128 1 348 101 532 245 76 58 89 65 81 38z m-746 -593 l0 -320
-350 0 -350 0 0 320 0 320 350 0 350 0 0 -320z"/>
<path d="M1328 1851 c-86 -8 -114 -29 -31 -24 83 5 121 12 128 23 4 6 -2 9
-12 8 -10 0 -48 -4 -85 -7z"/>
<path d="M1270 1799 c-25 -4 -66 -8 -92 -8 -27 -1 -48 -5 -48 -11 0 -5 75 -8
190 -7 104 1 190 5 190 8 0 8 -121 29 -161 28 -19 -1 -54 -5 -79 -10z"/>
<path d="M1225 1540 c-4 -6 12 -10 42 -10 46 -1 150 -20 186 -35 9 -4 17 -3
17 3 0 32 -227 71 -245 42z"/>
<path d="M390 1031 l0 -48 -62 -7 c-64 -6 -123 -33 -123 -55 0 -60 267 -90
430 -49 38 9 75 33 75 48 0 16 -81 50 -133 56 l-57 7 0 48 0 49 -65 0 -65 0 0
-49z"/>
</g>
</svg>
