<?xml version="1.0" ?><svg id="Icon_Set" style="enable-background:new 0 0 64 64;" version="1.1" viewBox="0 0 64 64" xml:space="preserve" xmlns="http://www.w3.org/2000/svg" xmlns:xlink="http://www.w3.org/1999/xlink"><style type="text/css">
	.st0{fill:#263238;}
	.st1{fill:#4FC3F7;}
	.st2{fill:#FFFFFF;}
	.st3{fill:#FF5592;}
	.st4{fill:#FF5252;}
	.st5{fill:#FFD740;}
	.st6{fill-rule:evenodd;clip-rule:evenodd;fill:#4DB6AC;}
	.st7{fill-rule:evenodd;clip-rule:evenodd;fill:#4FC3F7;}
	.st8{fill-rule:evenodd;clip-rule:evenodd;fill:#FFFFFF;}
	.st9{fill:#4DB6AC;}
	.st10{fill:#6F67D6;}
	.st11{fill:#FF7155;}
	.st12{fill:#445056;}
	.st13{fill:#08141A;}
</style><g><g><path class="st0" d="M52,56.5H12c-2.481,0-4.5-2.019-4.5-4.5V16c0-0.276,0.224-0.5,0.5-0.5s0.5,0.224,0.5,0.5v36    c0,1.93,1.57,3.5,3.5,3.5h40c1.93,0,3.5-1.57,3.5-3.5v-2c0-0.276,0.224-0.5,0.5-0.5s0.5,0.224,0.5,0.5v2    C56.5,54.481,54.481,56.5,52,56.5z"/></g><g><path class="st0" d="M56,48.5c-0.276,0-0.5-0.224-0.5-0.5V12c0-1.93-1.57-3.5-3.5-3.5H12c-1.93,0-3.5,1.57-3.5,3.5v2    c0,0.276-0.224,0.5-0.5,0.5S7.5,14.276,7.5,14v-2c0-2.481,2.019-4.5,4.5-4.5h40c2.481,0,4.5,2.019,4.5,4.5v36    C56.5,48.276,56.276,48.5,56,48.5z"/></g><g><polygon class="st10" points="17,21 17,43 23,43 23,47 28.281,47 32.242,43 40.242,43 47,36.243 47,17 21,17   "/></g><g><polygon class="st2" points="23,20 23,38 27,38 27,42 31,38 41,38 44,35 44,20   "/></g><g><path class="st0" d="M28.281,47.5H23c-0.276,0-0.5-0.224-0.5-0.5v-3.5H17c-0.276,0-0.5-0.224-0.5-0.5V21    c0-0.133,0.053-0.26,0.146-0.354l4-4C20.74,16.553,20.867,16.5,21,16.5h26c0.276,0,0.5,0.224,0.5,0.5v19.243    c0,0.133-0.053,0.26-0.146,0.354l-6.758,6.757c-0.094,0.094-0.221,0.146-0.354,0.146h-7.791l-3.814,3.852    C28.543,47.447,28.415,47.5,28.281,47.5z M23.5,46.5h4.572l3.814-3.852c0.094-0.095,0.222-0.148,0.355-0.148h7.793l6.465-6.464    V17.5H21.207L17.5,21.207V42.5H23c0.276,0,0.5,0.224,0.5,0.5V46.5z"/></g><g><rect class="st10" height="8" width="3" x="31" y="25"/></g><g><rect class="st10" height="8" width="3" x="38" y="25"/></g></g></svg>